<svg width="700" height="200" viewBox="0 0 700 200" fill="none" xmlns="http://www.w3.org/2000/svg">
<g clip-path="url(#clip0_2_22)">
<path d="M265.464 67.28V76.208H237.144V95.888H259.224V104.816H237.144V134H226.2V67.28H265.464ZM288.734 127.376H305.654V134H280.526V83.96H288.734V127.376ZM347.726 123.776H326.774L323.174 134H314.606L332.534 83.888H342.038L359.966 134H351.326L347.726 123.776ZM345.422 117.08L337.286 93.824L329.078 117.08H345.422ZM389.29 134.504C385.93 134.504 382.906 133.928 380.218 132.776C377.53 131.576 375.418 129.896 373.882 127.736C372.346 125.576 371.578 123.056 371.578 120.176H380.362C380.554 122.336 381.394 124.112 382.882 125.504C384.418 126.896 386.554 127.592 389.29 127.592C392.122 127.592 394.33 126.92 395.914 125.576C397.498 124.184 398.29 122.408 398.29 120.248C398.29 118.568 397.786 117.2 396.778 116.144C395.818 115.088 394.594 114.272 393.106 113.696C391.666 113.12 389.65 112.496 387.058 111.824C383.794 110.96 381.13 110.096 379.066 109.232C377.05 108.32 375.322 106.928 373.882 105.056C372.442 103.184 371.722 100.688 371.722 97.568C371.722 94.688 372.442 92.168 373.882 90.008C375.322 87.848 377.338 86.192 379.93 85.04C382.522 83.888 385.522 83.312 388.93 83.312C393.778 83.312 397.738 84.536 400.81 86.984C403.93 89.384 405.658 92.696 405.994 96.92H396.922C396.778 95.096 395.914 93.536 394.33 92.24C392.746 90.944 390.658 90.296 388.066 90.296C385.714 90.296 383.794 90.896 382.306 92.096C380.818 93.296 380.074 95.024 380.074 97.28C380.074 98.816 380.53 100.088 381.442 101.096C382.402 102.056 383.602 102.824 385.042 103.4C386.482 103.976 388.45 104.6 390.946 105.272C394.258 106.184 396.946 107.096 399.01 108.008C401.122 108.92 402.898 110.336 404.338 112.256C405.826 114.128 406.57 116.648 406.57 119.816C406.57 122.36 405.874 124.76 404.482 127.016C403.138 129.272 401.146 131.096 398.506 132.488C395.914 133.832 392.842 134.504 389.29 134.504ZM461.255 83.96V134H453.047V112.112H429.503V134H421.295V83.96H429.503V105.416H453.047V83.96H461.255ZM514.612 99.728C518.196 100.368 521.236 102.256 523.732 105.392C526.228 108.528 527.476 112.08 527.476 116.048C527.476 119.44 526.58 122.512 524.788 125.264C523.06 127.952 520.532 130.096 517.204 131.696C513.876 133.232 510.004 134 505.588 134H478.9V67.28H504.34C508.884 67.28 512.788 68.048 516.052 69.584C519.316 71.12 521.78 73.2 523.444 75.824C525.108 78.384 525.94 81.264 525.94 84.464C525.94 88.304 524.916 91.504 522.868 94.064C520.82 96.624 518.068 98.512 514.612 99.728ZM489.844 95.312H503.38C506.964 95.312 509.748 94.512 511.732 92.912C513.78 91.248 514.804 88.88 514.804 85.808C514.804 82.8 513.78 80.464 511.732 78.8C509.748 77.072 506.964 76.208 503.38 76.208H489.844V95.312ZM504.628 125.072C508.34 125.072 511.252 124.176 513.364 122.384C515.476 120.592 516.532 118.096 516.532 114.896C516.532 111.632 515.412 109.04 513.172 107.12C510.932 105.2 507.956 104.24 504.244 104.24H489.844V125.072H504.628ZM574.457 123.776H553.505L549.905 134H541.337L559.265 83.888H568.769L586.697 134H578.057L574.457 123.776ZM572.153 117.08L564.017 93.824L555.809 117.08H572.153ZM596.796 108.872C596.796 103.976 597.924 99.584 600.18 95.696C602.484 91.808 605.58 88.784 609.468 86.624C613.404 84.416 617.7 83.312 622.356 83.312C627.684 83.312 632.412 84.632 636.54 87.272C640.716 89.864 643.74 93.56 645.612 98.36H635.748C634.452 95.72 632.652 93.752 630.348 92.456C628.044 91.16 625.38 90.512 622.356 90.512C619.044 90.512 616.092 91.256 613.5 92.744C610.908 94.232 608.868 96.368 607.38 99.152C605.94 101.936 605.22 105.176 605.22 108.872C605.22 112.568 605.94 115.808 607.38 118.592C608.868 121.376 610.908 123.536 613.5 125.072C616.092 126.56 619.044 127.304 622.356 127.304C625.38 127.304 628.044 126.656 630.348 125.36C632.652 124.064 634.452 122.096 635.748 119.456H645.612C643.74 124.256 640.716 127.952 636.54 130.544C632.412 133.136 627.684 134.432 622.356 134.432C617.652 134.432 613.356 133.352 609.468 131.192C605.58 128.984 602.484 125.936 600.18 122.048C597.924 118.16 596.796 113.768 596.796 108.872ZM687.836 134L668.468 111.608V134H660.26V83.96H668.468V106.784L687.908 83.96H698.204L676.46 109.016L698.564 134H687.836Z" fill="black"/>
<g clip-path="url(#clip1_2_22)">
<path d="M171.7 88.5704V113.43C171.7 116.054 170.768 118.298 168.904 120.162C167.039 122.027 164.795 122.959 162.171 122.959L73.4028 122.855L55.4835 140.775C53.6881 142.57 51.4956 143.485 48.9061 143.52C46.3166 143.554 44.0897 142.639 42.2252 140.775L42.3288 61.3288C44.1932 59.4644 46.403 58.5322 48.9579 58.5322C51.5129 58.5322 53.6881 59.4299 55.4835 61.2252L73.4028 79.1446L162.171 79.041C164.795 79.041 167.039 79.9732 168.904 81.8377C170.768 83.7021 171.7 85.9464 171.7 88.5704ZM122.293 91.9885H94.7403C92.2544 91.9885 90.131 92.869 88.3702 94.6298C86.6093 96.3907 85.7289 98.5141 85.7289 101C85.7289 103.486 86.6093 105.609 88.3702 107.37C90.131 109.131 92.2544 110.011 94.7403 110.011H122.293C124.779 110.011 126.902 109.131 128.663 107.37C130.424 105.609 131.304 103.486 131.304 101C131.304 98.5141 130.424 96.3907 128.663 94.6298C126.902 92.869 124.779 91.9885 122.293 91.9885ZM29.8992 136.735C29.8992 138.807 29.1569 140.585 27.6722 142.07C26.1876 143.554 24.4094 144.296 22.3378 144.296C20.2662 144.296 18.5054 143.571 17.0553 142.121C15.6051 140.671 14.8801 138.91 14.8801 136.839V65.1613C14.8801 63.0897 15.6051 61.3288 17.0553 59.8787C18.5054 58.4286 20.2662 57.7035 22.3378 57.7035C24.4094 57.7035 26.1876 58.4458 27.6722 59.9305C29.1569 61.4151 29.8992 63.1933 29.8992 65.2649V136.735Z" fill="black"/>
</g>
</g>
<defs>
<clipPath id="clip0_2_22">
<rect width="700" height="200" fill="white"/>
</clipPath>
<clipPath id="clip1_2_22">
<rect width="150" height="150" fill="white" transform="translate(-24.066 101) rotate(-45)"/>
</clipPath>
</defs>
</svg>
